<svg width="18" height="18" viewBox="0 0 18 18" fill="none" xmlns="http://www.w3.org/2000/svg">
<path d="M8.24911 17.9583C7.43245 17.9583 6.61578 17.4583 5.62411 16.4666L1.53245 12.375C-0.459219 10.3833 -0.450885 9.09997 1.55745 7.09164L7.09078 1.5583C9.09912 -0.450031 10.3824 -0.458364 12.3741 1.5333L16.4658 5.62497C18.4574 7.61664 18.4491 8.89997 16.4408 10.9083L10.9074 16.4416C9.89911 17.45 9.07412 17.9583 8.24911 17.9583ZM9.74911 1.29164C9.31578 1.29164 8.76578 1.64997 7.97412 2.44164L2.44078 7.97497C1.64911 8.76664 1.29078 9.31664 1.29078 9.74164C1.29078 10.175 1.62411 10.7 2.41578 11.4916L6.50745 15.5833C7.29912 16.375 7.81578 16.7083 8.24911 16.7083C8.24911 16.7083 8.24911 16.7083 8.25745 16.7083C8.69078 16.7083 9.23245 16.35 10.0241 15.5583L15.5574 10.025C16.3491 9.2333 16.7074 8.6833 16.7074 8.2583C16.7074 7.82497 16.3741 7.29997 15.5824 6.5083L11.4908 2.41664C10.7074 1.62497 10.1824 1.29164 9.74911 1.29164Z" fill="#8999B9"/>
</svg>
