<svg width="20" height="21" viewBox="0 0 20 21" fill="none" xmlns="http://www.w3.org/2000/svg">
<path d="M2.92849 3.42869C-0.97474 7.33192 -0.97474 13.6676 2.92849 17.5708C6.83172 21.4741 13.1674 21.4741 17.0706 17.5708C20.9739 13.6676 20.9739 7.33192 17.0706 3.42869C13.1674 -0.47454 6.83172 -0.474541 2.92849 3.42869ZM13.224 8.02488L13.224 12.2675C13.224 12.4797 13.1391 12.6635 13.0048 12.7979C12.8704 12.9322 12.6866 13.0171 12.4744 13.0171C12.0643 13.0171 11.7249 12.6776 11.7249 12.2675L11.7249 9.83508L8.05501 13.505C7.7651 13.7949 7.28427 13.7949 6.99435 13.505C6.70444 13.215 6.70444 12.7342 6.99435 12.4443L10.6642 8.77442L8.23179 8.77442C7.82167 8.77442 7.48226 8.435 7.48226 8.02488C7.48226 7.61476 7.82167 7.27535 8.23179 7.27535L12.4744 7.27535C12.8846 7.27535 13.224 7.61476 13.224 8.02488Z" fill="#EB482B"/>
</svg>
