<svg width="20" height="21" viewBox="0 0 20 21" fill="none" xmlns="http://www.w3.org/2000/svg">
<path d="M18.192 16.2356C21.3581 11.7139 20.2579 5.47445 15.7362 2.3083C11.2145 -0.857838 4.97507 0.242341 1.80893 4.76406C-1.35721 9.28578 -0.257033 15.5252 4.26469 18.6913C8.78641 21.8575 15.0258 20.7573 18.192 16.2356ZM7.25479 13.497L6.51806 9.31883C6.48122 9.10992 6.53286 8.91413 6.64184 8.75849C6.75082 8.60285 6.91714 8.48736 7.12605 8.45052C7.52994 8.37931 7.92314 8.65462 7.99435 9.05852L8.41674 11.454L11.3936 7.20261C11.6288 6.86676 12.1023 6.78326 12.4382 7.01843C12.774 7.25359 12.8575 7.72712 12.6223 8.06297L9.64547 12.3144L12.041 11.892C12.4449 11.8208 12.838 12.0961 12.9093 12.5C12.9805 12.9039 12.7052 13.2971 12.3013 13.3683L8.12309 14.105C7.7192 14.1762 7.326 13.9009 7.25479 13.497Z" fill="#00BF7A"/>
</svg>
