<svg width="18" height="23" viewBox="0 0 18 23" fill="none" xmlns="http://www.w3.org/2000/svg">
<path fill-rule="evenodd" clip-rule="evenodd" d="M6.74996 22.5H11.25C11.8711 22.5 12.3751 21.9813 12.3751 21.3421C12.3751 20.7029 11.8711 20.1842 11.25 20.1842H6.74996C6.12895 20.1842 5.62494 20.7029 5.62494 21.3421C5.62494 21.9813 6.12895 22.5 6.74996 22.5ZM15.7501 11.8057V7.44505C15.7501 3.60895 12.7295 0.5 9.00227 0.5H8.99773C5.27054 0.5 2.24988 3.60895 2.24988 7.44505V11.8057L0.119076 16.1929C-0.0553023 16.5519 -0.0373028 16.978 0.167451 17.3196C0.37333 17.6612 0.734476 17.8684 1.12486 17.8684H16.8751C17.2655 17.8684 17.6267 17.6612 17.8325 17.3196C18.0373 16.978 18.0553 16.5519 17.8809 16.1929L15.7501 11.8057ZM13.5001 12.0789C13.5001 12.2584 13.5406 12.4356 13.6193 12.5965L15.0548 15.5526H2.94515L4.38068 12.5965C4.45943 12.4356 4.49992 12.2584 4.49992 12.0789V7.44505C4.49992 4.88842 6.51369 2.81579 8.99773 2.81579H9.00227C11.4863 2.81579 13.5001 4.88842 13.5001 7.44505V12.0789Z" fill="#8999B9"/>
</svg>
